<svg width="24" height="25" viewBox="0 0 24 25" fill="none" xmlns="http://www.w3.org/2000/svg">
<path d="M19.5 18.5574H4.5C4.1023 18.557 3.721 18.3974 3.43978 18.1137C3.15856 17.8299 3.0004 17.4452 3 17.044V6.45022C3.0004 6.04897 3.15856 5.66426 3.43978 5.38053C3.721 5.0968 4.1023 4.93723 4.5 4.93683H19.5C19.8977 4.93723 20.279 5.0968 20.5602 5.38053C20.8414 5.66426 20.9996 6.04897 21 6.45022V17.044C20.9994 17.4452 20.8412 17.8298 20.56 18.1134C20.2788 18.3971 19.8976 18.5568 19.5 18.5574ZM4.5 6.45022V17.044H19.5V6.45022H4.5Z" fill="#1B9145"/>
<path d="M1.5 20.0707H22.5V21.5841H1.5V20.0707Z" fill="#1B9145"/>
</svg>
