<svg width="23" height="24" viewBox="0 0 23 24" fill="none" xmlns="http://www.w3.org/2000/svg">
<path d="M18.1263 11.0968C18.8866 9.89212 19.1415 8.43206 18.8348 7.03781C18.5281 5.64356 17.685 4.42933 16.491 3.66225C15.297 2.89517 13.8498 2.63806 12.4679 2.94749C11.086 3.25691 9.88252 4.10753 9.12223 5.31221L9.08116 5.36743L9.04894 5.42834C8.31157 6.62116 8.06805 8.05847 8.37082 9.43068C8.41082 9.61904 8.46184 9.80483 8.52362 9.98709L4.74411 18.6571C4.62959 18.9194 4.61205 19.2144 4.69469 19.4886C4.77733 19.7629 4.95466 19.9981 5.19451 20.1517L6.46058 20.9651C6.69997 21.1194 6.98626 21.182 7.2675 21.1415C7.54873 21.1011 7.80627 20.9602 7.99339 20.7446L14.1811 13.6217C14.3709 13.601 14.5593 13.5691 14.7454 13.526C16.1059 13.2223 17.2937 12.3916 18.0531 11.2129L18.0941 11.1577L18.1263 11.0968ZM17.6452 7.35404C17.8406 8.23749 17.7448 9.16118 17.3724 9.98469L10.44 5.53106C10.9416 4.93934 11.5969 4.5005 12.3321 4.26388C13.0674 4.02726 13.8535 4.00224 14.602 4.19164C15.3506 4.38103 16.032 4.77733 16.5696 5.33599C17.1072 5.89465 17.4797 6.59351 17.6452 7.35404ZM7.09762 19.9557L5.83156 19.1423L9.22361 11.3721C10.0341 12.527 11.2611 13.3152 12.6411 13.5676L7.09762 19.9557ZM9.53012 9.1711C9.33467 8.28764 9.43047 7.36396 9.80293 6.54045L10.44 5.53106L17.3724 9.98469C16.8707 10.5764 15.5784 12.0246 14.8432 12.2613C14.1079 12.4979 13.3218 12.5229 12.5733 12.3335C11.8247 12.1441 11.1433 11.7478 10.6057 11.1892C10.0681 10.6305 9.69564 9.93163 9.53012 9.1711Z" fill="#C4C4C4"/>
</svg>
