<svg width="24" height="25" viewBox="0 0 24 25" fill="none" xmlns="http://www.w3.org/2000/svg">
<path d="M15 4.6808C15 3.59217 13.726 3.01607 12.92 3.73846L8.427 7.76711C8.28986 7.89038 8.11266 7.95859 7.929 7.95881H4.25C3.65326 7.95881 3.08097 8.19798 2.65901 8.6237C2.23705 9.04943 2 9.62683 2 10.2289V14.7661C2 15.3681 2.23705 15.9455 2.65901 16.3712C3.08097 16.797 3.65326 17.0361 4.25 17.0361H7.93C8.11366 17.0364 8.29086 17.1046 8.428 17.2278L12.919 21.2575C13.725 21.9799 15 21.4028 15 20.3152V4.6808ZM9.425 8.89812L13.5 5.24278V19.7532L9.425 16.0968C9.01319 15.7272 8.48121 15.5229 7.93 15.5227H4.25C4.05109 15.5227 3.86032 15.443 3.71967 15.3011C3.57902 15.1592 3.5 14.9667 3.5 14.7661V10.2299C3.5 10.0292 3.57902 9.83675 3.71967 9.69484C3.86032 9.55294 4.05109 9.47321 4.25 9.47321H7.93C8.48121 9.47307 9.01319 9.26879 9.425 8.89913V8.89812Z" fill="#B3B3B3"/>
<path d="M18.992 6.34252C19.0712 6.28342 19.1611 6.24065 19.2567 6.21662C19.3523 6.1926 19.4516 6.18781 19.549 6.20252C19.6464 6.21723 19.74 6.25115 19.8244 6.30235C19.9089 6.35355 19.9824 6.42103 20.041 6.50092C21.3162 8.23617 22.0031 10.3398 22 12.5C22.0028 14.6603 21.3155 16.7639 20.04 18.4991C19.9192 18.6532 19.7437 18.7538 19.5506 18.7797C19.3576 18.8056 19.1621 18.7547 19.0056 18.6378C18.8491 18.5209 18.7437 18.3472 18.7119 18.1533C18.6801 17.9595 18.7242 17.7607 18.835 17.5991C19.9192 16.1244 20.5031 14.3362 20.5 12.5C20.5031 10.6638 19.9192 8.87563 18.835 7.40089C18.7764 7.32099 18.734 7.23024 18.7102 7.13381C18.6864 7.03739 18.6817 6.93717 18.6962 6.8389C18.7108 6.74062 18.7445 6.6462 18.7952 6.56103C18.8459 6.47586 18.9128 6.40161 18.992 6.34252Z" fill="#B3B3B3"/>
<path d="M17.143 8.8376C17.2296 8.79021 17.3246 8.7605 17.4226 8.75016C17.5206 8.73983 17.6196 8.74908 17.7141 8.77737C17.8085 8.80567 17.8965 8.85246 17.973 8.91507C18.0495 8.97769 18.1131 9.0549 18.16 9.14229C18.696 10.1411 19 11.2863 19 12.5C19.0017 13.6724 18.7129 14.8266 18.16 15.8577C18.0653 16.0343 17.905 16.1658 17.7143 16.2231C17.5235 16.2804 17.3181 16.259 17.143 16.1634C16.968 16.0679 16.8377 15.9061 16.7809 15.7137C16.7241 15.5213 16.7453 15.314 16.84 15.1373C17.26 14.3534 17.5 13.4565 17.5 12.5C17.5 11.5435 17.26 10.6466 16.84 9.86267C16.7931 9.77523 16.7637 9.67932 16.7535 9.58042C16.7433 9.48152 16.7526 9.38156 16.7807 9.28627C16.8089 9.19098 16.8554 9.10221 16.9175 9.02505C16.9797 8.94789 17.0563 8.88385 17.143 8.83659V8.8376Z" fill="#B3B3B3"/>
</svg>
