<svg width="100" height="100" viewBox="0 0 100 100" fill="none" xmlns="http://www.w3.org/2000/svg">
<path d="M0 0H100V100H0V0Z" fill="url(#paint0_linear_115_69)"/>
<g clip-path="url(#clip0_115_69)">
<path d="M57.1461 37.1082C55.7855 37.1293 54.4545 37.5091 53.2876 38.2093C52.1208 38.9094 51.1593 39.905 50.5003 41.0957C49.8413 39.905 48.8798 38.9094 47.713 38.2093C46.5461 37.5091 45.2151 37.1293 43.8545 37.1082C41.6854 37.2024 39.6419 38.1513 38.1702 39.7474C36.6985 41.3436 35.9184 43.4574 36.0003 45.6269C36.0003 53.8134 49.2388 63.2686 49.8019 63.6697L50.5003 64.1639L51.1987 63.6697C51.7618 63.271 65.0003 53.8134 65.0003 45.6269C65.0822 43.4574 64.3021 41.3436 62.8304 39.7474C61.3587 38.1513 59.3152 37.2024 57.1461 37.1082V37.1082Z" fill="white"/>
</g>
<defs>
<linearGradient id="paint0_linear_115_69" x1="0" y1="0" x2="100" y2="100" gradientUnits="userSpaceOnUse">
<stop stop-color="#4000F4"/>
<stop offset="0.224829" stop-color="#603AED"/>
<stop offset="0.469313" stop-color="#7C6EE6"/>
<stop offset="0.657091" stop-color="#979FE1"/>
<stop offset="0.77684" stop-color="#A2B3DE"/>
<stop offset="0.889332" stop-color="#ADC8DC"/>
<stop offset="1" stop-color="#C0ECD7"/>
</linearGradient>
<clipPath id="clip0_115_69">
<rect width="29" height="29" fill="white" transform="translate(36 36)"/>
</clipPath>
</defs>
</svg>
